<?xml version="1.0" standalone="no"?>
<!DOCTYPE svg PUBLIC "-//W3C//DTD SVG 20010904//EN"
 "http://www.w3.org/TR/2001/REC-SVG-20010904/DTD/svg10.dtd">
<svg version="1.0" xmlns="http://www.w3.org/2000/svg"
 width="860.000000pt" height="860.000000pt" viewBox="0 0 860.000000 860.000000"
 preserveAspectRatio="xMidYMid meet">
<metadata>
Created by potrace 1.14, written by Peter Selinger 2001-2017
</metadata>
<g transform="translate(0.000000,860.000000) scale(0.100000,-0.100000)"
fill="#000000" stroke="none">
<path d="M4893 8170 c-44 -27 -79 -94 -90 -172 -3 -21 -8 -38 -12 -38 -3 0 -6
-22 -5 -50 0 -27 -2 -50 -6 -50 -3 0 -5 -25 -5 -55 1 -30 -2 -55 -6 -55 -4 0
-6 -14 -5 -31 1 -16 -1 -32 -6 -35 -4 -3 -8 -13 -8 -23 0 -11 -8 -29 -18 -42
-15 -18 -29 -22 -70 -23 -29 0 -52 -3 -52 -6 0 -4 -6 -7 -14 -7 -34 0 -74 -27
-92 -61 -10 -20 -19 -41 -19 -47 -2 -26 -18 -32 -90 -30 -41 1 -75 -1 -75 -5
0 -3 -10 -6 -22 -6 -41 1 -170 -14 -181 -21 -6 -3 -22 -7 -36 -9 -42 -4 -165
-38 -172 -47 -3 -5 -8 -8 -10 -6 -7 4 -83 -23 -106 -37 -13 -8 -23 -12 -23 -9
0 2 -16 -4 -35 -15 -20 -11 -42 -20 -49 -20 -8 0 -16 -4 -18 -8 -1 -4 -34 -25
-71 -46 -81 -45 -205 -133 -271 -191 -6 -6 -24 -20 -40 -33 -16 -12 -26 -22
-24 -22 3 0 -28 -33 -68 -73 -41 -41 -74 -77 -74 -81 0 -4 -10 -17 -23 -29
-31 -30 -157 -204 -157 -217 0 -5 -4 -10 -9 -10 -5 0 -14 -13 -21 -30 -7 -16
-17 -30 -23 -30 -6 0 -7 -3 -4 -7 4 -3 1 -13 -7 -22 -19 -22 -122 -207 -176
-316 -25 -49 -47 -92 -50 -95 -3 -3 -6 -9 -7 -15 -1 -5 -14 -37 -29 -70 -16
-33 -29 -64 -29 -70 -1 -5 -9 -24 -18 -41 -9 -17 -13 -34 -10 -38 4 -3 1 -6
-5 -6 -7 0 -12 -5 -12 -10 0 -6 -9 -29 -19 -53 -10 -23 -27 -67 -37 -97 -10
-30 -21 -59 -25 -65 -4 -5 -12 -26 -17 -45 -6 -19 -29 -86 -51 -149 -22 -63
-38 -118 -35 -123 3 -4 1 -8 -5 -8 -5 0 -12 -19 -16 -42 -4 -24 -11 -47 -15
-53 -5 -5 -8 -12 -8 -15 1 -3 -7 -32 -17 -65 -9 -33 -18 -64 -19 -70 -1 -5 -5
-16 -9 -22 -5 -7 -6 -13 -3 -13 3 0 -2 -21 -10 -47 -8 -27 -17 -61 -19 -77 -2
-15 -8 -38 -12 -50 -4 -11 -8 -28 -8 -36 -1 -8 -4 -22 -8 -30 -3 -8 -11 -42
-18 -75 -7 -33 -14 -67 -16 -75 -2 -8 -6 -28 -8 -45 -3 -16 -9 -52 -15 -80
-15 -69 -21 -104 -25 -145 -1 -19 -4 -37 -5 -40 -4 -7 -15 -76 -26 -165 -1
-11 -3 -20 -4 -20 -1 0 -3 -29 -6 -65 -6 -108 -11 -160 -16 -165 -3 -3 -19 2
-37 11 -96 48 -241 54 -346 15 -33 -12 -66 -23 -72 -23 -7 -1 -13 -5 -13 -10
0 -4 -5 -8 -11 -8 -15 0 -159 -102 -159 -112 0 -5 -4 -7 -9 -3 -6 3 -4 17 5
33 7 15 14 33 14 40 0 6 4 12 10 12 5 0 9 3 8 8 -1 4 5 32 14 62 24 81 30 136
34 299 5 223 15 295 54 372 30 57 53 68 136 64 105 -4 185 34 152 73 -12 15
-38 66 -38 76 0 2 25 -2 54 -9 30 -7 74 -11 97 -9 42 4 108 37 110 55 2 12 6
28 9 34 4 8 6 17 14 70 8 53 -6 137 -23 143 -6 2 -11 9 -11 16 0 7 -14 25 -30
40 -33 29 -100 69 -100 60 0 -4 -6 -1 -14 5 -8 7 -29 16 -48 22 -18 6 -42 13
-53 16 -32 10 -176 8 -183 -3 -4 -5 -13 -10 -21 -12 -19 -4 -90 -54 -127 -89
-17 -15 -56 -62 -87 -103 -32 -41 -61 -80 -66 -86 -6 -7 -7 -15 -4 -18 4 -3 1
-6 -5 -6 -7 0 -12 -5 -12 -11 0 -6 -9 -24 -21 -40 -11 -16 -18 -29 -15 -29 3
0 -8 -23 -24 -50 -16 -28 -27 -50 -23 -50 3 0 -1 -8 -9 -17 -9 -10 -19 -29
-23 -43 -4 -14 -11 -27 -14 -30 -8 -6 -47 -88 -81 -170 -13 -30 -27 -59 -32
-64 -4 -6 -8 -17 -8 -26 0 -9 -5 -21 -12 -28 -6 -6 -13 -17 -14 -24 -1 -7 -10
-31 -20 -53 -10 -22 -17 -43 -16 -47 1 -5 -3 -8 -8 -8 -5 0 -9 -3 -8 -7 3 -15
-25 -93 -34 -93 -5 0 -6 -5 -3 -10 4 -6 2 -16 -3 -23 -6 -7 -16 -31 -23 -54
-6 -24 -16 -43 -21 -43 -5 0 -8 -6 -6 -12 1 -7 -2 -26 -9 -43 -21 -55 -26 -70
-29 -85 -1 -8 -12 -51 -24 -95 -11 -44 -23 -93 -25 -110 -3 -16 -8 -41 -11
-55 -2 -14 -6 -65 -9 -113 -4 -75 -1 -96 16 -135 21 -45 80 -112 99 -112 6 0
10 -4 10 -8 0 -9 84 -52 101 -52 6 0 16 -6 24 -12 7 -7 29 -26 49 -43 20 -16
44 -37 54 -45 10 -8 34 -24 55 -35 20 -11 37 -23 37 -27 0 -4 7 -5 15 -2 8 4
15 1 15 -5 0 -6 4 -11 9 -11 5 0 22 -5 38 -12 15 -6 33 -12 38 -13 6 -1 12 -3
15 -4 40 -18 249 -28 330 -15 19 3 44 7 55 8 11 2 27 5 35 8 62 21 166 52 173
50 4 -1 7 2 7 7 0 5 10 13 23 17 12 3 34 15 49 25 14 11 30 19 35 19 4 0 9
-28 11 -62 3 -104 9 -191 15 -233 3 -22 9 -78 13 -125 3 -47 8 -88 10 -92 3
-4 7 -27 9 -50 3 -24 7 -56 10 -73 3 -16 8 -46 11 -65 3 -19 8 -42 11 -50 3
-8 8 -26 10 -40 8 -48 9 -55 15 -70 4 -12 25 -96 43 -170 2 -8 13 -40 24 -70
11 -30 27 -74 36 -98 26 -71 96 -215 121 -248 13 -17 20 -34 17 -38 -4 -3 -2
-6 4 -6 6 0 14 -12 17 -26 4 -15 10 -24 13 -20 3 3 15 -13 26 -35 18 -37 101
-159 159 -233 67 -86 230 -254 307 -316 24 -19 51 -42 60 -51 26 -25 120 -89
131 -89 6 0 10 -4 10 -9 0 -5 30 -26 67 -47 38 -20 70 -40 73 -43 14 -17 257
-126 273 -123 4 1 7 -3 7 -9 0 -6 6 -9 14 -6 7 3 18 1 23 -4 5 -5 20 -11 33
-14 60 -12 125 -40 146 -64 22 -25 23 -25 17 -3 -6 25 2 27 62 11 22 -6 58
-12 80 -15 22 -3 56 -7 75 -10 19 -2 78 -7 130 -10 52 -4 103 -10 112 -15 9
-5 19 -5 22 0 3 4 22 7 43 4 92 -9 743 -4 813 7 41 6 84 12 95 13 11 2 26 6
33 10 6 5 17 5 22 2 6 -4 16 -2 23 3 7 5 19 10 27 10 8 1 42 8 75 17 33 9 68
17 78 18 9 1 17 5 17 9 0 4 7 8 16 8 18 0 196 70 204 80 3 3 21 13 40 23 70
32 201 123 315 217 93 77 380 379 410 431 5 9 24 41 41 71 17 29 41 71 53 93
13 22 28 43 33 46 5 3 9 8 8 10 -1 2 10 31 25 64 15 33 38 84 51 113 13 29 24
54 24 57 0 2 4 14 9 27 5 13 10 28 11 33 1 6 5 15 10 20 6 9 39 100 46 130 2
6 12 42 23 80 12 39 23 79 25 90 26 125 36 175 40 200 2 17 5 30 6 30 4 0 10
100 14 208 2 59 6 111 10 114 3 3 1 12 -5 20 -6 7 -7 13 -3 13 5 0 8 17 7 37
-6 82 -13 169 -17 198 -13 87 -17 115 -28 165 -6 30 -12 62 -14 70 -1 8 -9 37
-18 65 -11 37 -12 51 -3 57 6 4 16 3 22 -1 10 -9 191 -7 235 3 14 3 36 7 50 9
97 16 218 86 297 171 29 31 57 57 63 57 5 1 13 2 18 3 24 4 82 49 111 84 18
23 30 42 28 42 -3 0 1 19 7 43 15 51 13 121 -8 235 -8 39 -29 98 -64 172 -14
30 -25 58 -24 63 1 4 -3 7 -8 7 -5 0 -9 3 -8 8 1 4 -4 20 -11 36 -15 37 -200
406 -231 461 -39 71 -134 230 -140 235 -3 3 -11 17 -19 33 -8 15 -18 27 -23
27 -4 0 -8 5 -8 11 0 11 -106 147 -130 166 -8 7 -12 13 -7 13 10 0 -21 30 -87
84 -66 53 -114 68 -217 68 -92 1 -161 -21 -210 -65 -40 -35 -91 -111 -82 -121
3 -3 2 -11 -4 -18 -8 -11 -9 -76 -2 -129 3 -24 51 -90 74 -103 11 -6 22 -13
25 -16 5 -5 21 -5 38 0 4 1 10 2 15 1 4 0 7 3 7 8 0 10 48 25 70 22 19 -3 49
-31 33 -31 -18 0 -25 -35 -12 -63 11 -24 42 -42 64 -37 6 1 24 5 40 9 17 3 56
6 88 6 53 0 61 -3 86 -31 23 -25 28 -39 27 -82 -1 -29 1 -52 4 -52 3 0 5 -28
4 -62 0 -35 2 -67 5 -73 3 -5 7 -21 8 -35 5 -40 16 -114 20 -130 2 -8 6 -26 8
-40 1 -14 4 -26 5 -27 3 -4 5 -11 14 -55 5 -21 12 -38 18 -38 5 0 6 -5 3 -10
-4 -6 -1 -17 5 -25 7 -8 9 -15 5 -15 -4 0 -2 -7 5 -15 7 -8 9 -15 4 -15 -5 0
-2 -4 6 -10 8 -5 12 -12 8 -15 -4 -4 -26 4 -50 18 -48 28 -125 56 -167 60 -15
2 -31 5 -36 8 -26 12 -205 -7 -205 -23 0 -5 -5 -6 -10 -3 -6 4 -17 1 -25 -5
-8 -7 -15 -9 -15 -5 0 4 -7 2 -15 -5 -9 -7 -18 -10 -21 -7 -4 3 -13 0 -21 -8
-22 -23 -30 -19 -51 28 -11 23 -41 87 -67 142 -55 115 -118 250 -147 315 -11
25 -33 72 -48 105 -68 147 -154 381 -145 396 3 4 1 9 -3 11 -11 4 -73 258 -74
300 0 18 -3 38 -7 43 -3 6 -7 28 -8 50 -3 42 -6 77 -17 160 -3 28 -7 70 -8 95
-1 25 -4 50 -7 55 -3 6 -6 42 -8 80 -7 194 -12 281 -16 295 -3 8 -8 40 -11 70
-2 30 -7 73 -11 95 -4 22 -7 51 -9 65 -1 14 -4 30 -8 35 -3 6 -11 37 -17 70
-7 33 -19 78 -28 100 -8 22 -15 42 -15 45 -2 19 -29 89 -66 170 -20 41 -36 79
-36 83 -1 4 -7 11 -14 16 -8 5 -12 10 -10 12 1 2 -8 22 -21 44 -13 22 -24 42
-25 44 -5 18 -153 172 -205 214 -13 10 -33 23 -47 29 -13 6 -24 15 -24 20 0 5
-4 7 -9 4 -12 -8 -22 20 -14 41 11 27 7 81 -7 98 -11 13 -87 52 -115 59 -65
16 -92 63 -89 156 3 59 23 174 34 188 2 1 3 5 4 10 6 26 30 89 39 100 5 6 6
12 2 12 -4 0 -1 10 7 23 31 48 47 102 35 118 -16 20 -69 46 -90 43 -9 -1 -17
2 -17 8 0 5 -6 8 -12 5 -7 -2 -33 2 -58 9 -65 20 -129 17 -167 -6z"/>
</g>
</svg>
